<svg xmlns="http://www.w3.org/2000/svg" xmlns:xlink="http://www.w3.org/1999/xlink" width="174.041" height="54.595" viewBox="0 0 174.041 54.595"><defs><clipPath id="a"><rect width="174.041" height="54.595" fill="none"/></clipPath></defs><g transform="translate(-250.52 -280.375)"><g transform="translate(250.52 280.375)" clip-path="url(#a)"><path d="M301,305.616a25.24,25.24,0,1,1-25.243-25.241A25.237,25.237,0,0,1,301,305.616" transform="translate(-250.52 -280.375)" fill="#0069aa"/><path d="M330.574,294.379V290.5a8.626,8.626,0,0,0-1.369-.134,5.179,5.179,0,0,0-4.2,1.845v-1.583h-4.073v16.837h4.2v-7.562c0-2.315-.043-3.841.787-4.818,1.4-1.652,3.886-.919,4.657-.708" transform="translate(-182.453 -270.713)" fill="#35444f"/><path d="M283.434,310.375V287.362h15.16v4.008H287.926v5.4h9.082v4.008h-9.082v5.591h10.668v4.008Z" transform="translate(-218.701 -273.62)" fill="#35444f"/><path d="M326.527,293.194v-4.976h4.2v4.976h3.721v3.2h-3.721v8.079c0,.972.452,1.52,1.455,1.52h2.266v3.556h-3.043a4.567,4.567,0,0,1-4.879-4.817V293.194Z" transform="translate(-177.041 -272.793)" fill="#35444f"/><path d="M341.627,310.375V300.1a2.741,2.741,0,1,0-5.462,0v10.278h-4.2V287.362h4.2v7.725a5.561,5.561,0,0,1,4.038-1.745c3.684,0,5.623,2.586,5.623,6.14v10.892Z" transform="translate(-171.787 -273.62)" fill="#35444f"/><path d="M304.933,306.111a5.862,5.862,0,0,1-4.1,1.518,4.983,4.983,0,0,1-4.073-1.68v7.658h-4.2V290.6h4.073v1.583a5.119,5.119,0,0,1,4.2-1.778,5.863,5.863,0,0,1,4.1,1.52c1.682,1.68,1.713,4.557,1.713,7.078s-.031,5.428-1.713,7.11M299.6,294.185c-2.521,0-2.846,2.069-2.846,4.817s.325,4.848,2.846,4.848,2.842-2.1,2.842-4.848-.323-4.817-2.842-4.817" transform="translate(-209.884 -270.68)" fill="#35444f"/><path d="M319.1,307.34h-3.458l-3.522-10.569L308.6,307.34h-3.458L299.965,290.5h4.461l2.716,10.408,3.426-10.408h3.07l3.458,10.408,2.716-10.408h4.427Z" transform="translate(-202.72 -270.586)" fill="#35444f"/><path d="M324.768,305.561a6.98,6.98,0,0,1-5.237,2.069,6.9,6.9,0,0,1-5.2-2.069c-1.52-1.583-1.908-3.489-1.908-6.559,0-3.041.388-4.946,1.908-6.53a6.9,6.9,0,0,1,5.2-2.069,6.98,6.98,0,0,1,5.237,2.069c1.52,1.583,1.906,3.489,1.906,6.53,0,3.07-.385,4.976-1.906,6.559M321.5,294.928a2.651,2.651,0,0,0-1.973-.743,2.571,2.571,0,0,0-1.937.743c-.873.871-.972,2.327-.972,4.073s.1,3.231.972,4.1a2.579,2.579,0,0,0,1.937.743,2.659,2.659,0,0,0,1.973-.743c.873-.873.97-2.36.97-4.1s-.1-3.2-.97-4.073" transform="translate(-190.678 -270.68)" fill="#35444f"/><path d="M288.861,298.813c.307.344-.171.708-.616,1.109a55.488,55.488,0,0,1-12.227,6.815c-.092,1.741-.93,19.862-.962,20.415a1.775,1.775,0,0,1-1.687,1.361,1.8,1.8,0,0,1-1.792-1.361c-.041-.665-.686-19.068-.686-19.068a38.419,38.419,0,0,1-8.026,1.048c-4.689-.02-9.7-1.184-9.7-4.878,0-2.236,1.965-4.651,5.477-7.336a29.421,29.421,0,0,1,7.989-4.16c.179-.02.3.008.368.092.15.2-.02.411-.4.645-1.689,1.04-8.943,5.468-8.943,9.043,0,2.032,2.539,3.434,7.808,3.347,7.3-.12,15.321-2.712,22.059-6.655,0,0,1.029-.765,1.337-.419m-1.868-11.759h-.006c-3.755,0-9.342,1.542-13.272,2.651-3.361.95-3.806,2.984-3.806,3.873a3.356,3.356,0,1,0,4.862-3l.031-.012a46.914,46.914,0,0,1,11.271-2.266c1.007,0,2.368.151,2.378,1.385.01,1.084-2.085,3.786-6.945,6.559a31.351,31.351,0,0,1-14.043,4.262c-2.077.006-3.048-.45-3.037-1.164a1.227,1.227,0,0,1,.228-.649.265.265,0,0,0,.008-.279.25.25,0,0,0-.252-.108,2.9,2.9,0,0,0-2.405,2.683,2.167,2.167,0,0,0,.922,1.9c.724.488,1.866.614,3.629.614,11.163,0,26.1-8.8,26.1-13.376,0-2.826-4.2-3.082-5.668-3.076" transform="translate(-247.965 -273.918)" fill="#54bceb"/></g></g></svg>